<svg xmlns="http://www.w3.org/2000/svg" viewBox="0 0 420 260" fill="none" stroke-linecap="round" stroke-linejoin="round">
  <g stroke="#7DD3FC" stroke-opacity=".55" stroke-width="2">
    <!-- gear -->
    <circle cx="300" cy="130" r="46"/><circle cx="300" cy="130" r="18"/>
    <path d="M300 70v14M300 176v14M240 130h14M346 130h14M258 88l10 10M332 162l10 10M342 88l-10 10M268 162l-10 10"/>
    <!-- circuit traces -->
    <path d="M20 60H110V110H170"/><path d="M20 130H80V180H200"/><path d="M20 210H140V230H240"/>
    <path d="M110 60V20H210"/><path d="M170 110H214"/>
  </g>
  <g fill="#0F172A" stroke="#38BDF8" stroke-width="2"><circle cx="20" cy="60" r="5"/><circle cx="20" cy="130" r="5"/><circle cx="20" cy="210" r="5"/><circle cx="210" cy="20" r="5"/><circle cx="214" cy="110" r="5"/><circle cx="200" cy="180" r="5"/><circle cx="240" cy="230" r="5"/></g>
  <rect x="150" y="96" width="24" height="28" rx="3" stroke="#7DD3FC" stroke-opacity=".7" stroke-width="2" fill="none"/>
</svg>
